<svg width="20" height="20" viewBox="-6 -6 32 32" fill="none" xmlns="http://www.w3.org/2000/svg">
<path d="M9.99941 20C10.577 19.9997 11.142 19.8411 11.6258 19.5434C12.1096 19.2458 12.4913 18.822 12.7245 18.3235C12.7514 18.2681 12.7631 18.2073 12.7583 18.1466C12.7535 18.0859 12.7325 18.0273 12.6971 17.9764C12.6618 17.9255 12.6134 17.8838 12.5563 17.8554C12.4993 17.8269 12.4355 17.8126 12.371 17.8138H7.62782C7.5634 17.8128 7.49975 17.8272 7.44284 17.8557C7.38593 17.8842 7.33761 17.9259 7.30239 17.9768C7.26718 18.0277 7.24622 18.0862 7.24148 18.1468C7.23674 18.2074 7.24836 18.2682 7.27528 18.3235C7.50841 18.8218 7.88997 19.2456 8.37358 19.5432C8.85718 19.8408 9.42201 19.9995 9.99941 20V20Z" fill="url(#paint0_linear_3_8)"/>
<path d="M17.2807 15.1075C16.9102 15.1075 16.5549 14.9686 16.293 14.7215C16.031 14.4743 15.8838 14.1391 15.8838 13.7896V9.00183C15.8836 7.76722 15.4471 6.56792 14.6435 5.59354C13.8399 4.61916 12.7149 3.92529 11.4465 3.62164C11.4 3.28599 11.2254 2.97785 10.9553 2.75493C10.6853 2.532 10.3385 2.40957 9.97967 2.41056C9.62087 2.41155 9.27476 2.5359 9.00614 2.76031C8.73753 2.98473 8.56482 3.29383 8.52037 3.62973C7.38915 3.9087 6.37156 4.49907 5.59727 5.32564C4.82297 6.15221 4.32702 7.17754 4.17262 8.27099C4.17262 8.30425 4.16309 8.33661 4.15928 8.36987C4.15547 8.40313 4.1488 8.45977 4.14499 8.50471C4.14118 8.54966 4.13736 8.59461 4.13355 8.63865C4.12974 8.6827 4.12879 8.71327 4.12688 8.75102C4.12688 8.82743 4.12117 8.90295 4.12021 8.98026V13.7887C4.12022 14.1365 3.9745 14.4702 3.7148 14.7171C3.4551 14.964 3.1025 15.104 2.73385 15.1066C2.64726 15.1056 2.56132 15.1208 2.48094 15.1512C2.40055 15.1815 2.3273 15.2266 2.26537 15.2837C2.20343 15.3408 2.15402 15.4088 2.11996 15.4839C2.08591 15.5591 2.06786 15.6398 2.06687 15.7215V15.7268C2.06687 15.8914 2.13614 16.0491 2.25943 16.1654C2.38273 16.2818 2.54995 16.3471 2.72432 16.3471H17.2807C17.4506 16.341 17.6114 16.273 17.7293 16.1575C17.8472 16.0419 17.9131 15.8877 17.9131 15.7273C17.9131 15.5669 17.8472 15.4127 17.7293 15.2971C17.6114 15.1816 17.4506 15.1136 17.2807 15.1075V15.1075Z" fill="url(#paint1_linear_3_8)"/>
<path d="M14.2142 2.6818C15.0179 2.85006 15.7447 3.25358 16.2909 3.83475C16.8371 4.41592 17.1747 5.14504 17.2556 5.91801C17.2594 5.95971 17.272 6.00028 17.2925 6.03737C17.3131 6.07446 17.3412 6.10734 17.3753 6.13409C17.4095 6.16085 17.4489 6.18095 17.4913 6.19324C17.5337 6.20552 17.5783 6.20975 17.6224 6.20567C17.7114 6.19765 17.7936 6.15698 17.8511 6.0924C17.8794 6.06025 17.9008 6.02312 17.9138 5.98317C17.9269 5.94321 17.9315 5.90121 17.9273 5.85958C17.8392 4.94884 17.4452 4.08844 16.8026 3.40367C16.1601 2.71891 15.3027 2.24555 14.3552 2.05254C14.332 2.04798 14.3084 2.04557 14.2847 2.04535C14.2015 2.04553 14.1213 2.07471 14.0595 2.12727C13.9978 2.17983 13.9588 2.25208 13.95 2.33012C13.9413 2.40816 13.9634 2.4865 14.0122 2.55009C14.0609 2.61367 14.1329 2.65802 14.2142 2.67461V2.6818Z" fill="url(#paint2_linear_3_8)"/>
<path d="M14.5931 0.629251C15.8441 0.890067 16.9756 1.51742 17.8258 2.4216C18.676 3.32577 19.2014 4.46045 19.3268 5.66335C19.3307 5.70501 19.3433 5.74551 19.3639 5.78255C19.3845 5.81958 19.4127 5.85241 19.4468 5.87914C19.4809 5.90588 19.5202 5.92599 19.5626 5.93832C19.6049 5.95066 19.6495 5.95497 19.6936 5.95101C19.7826 5.94299 19.8647 5.90232 19.9223 5.83774C19.9506 5.80559 19.9719 5.76847 19.985 5.72851C19.9981 5.68855 20.0027 5.64655 19.9985 5.60492C19.8648 4.26581 19.2825 3.00167 18.3362 1.9957C17.3898 0.989725 16.1285 0.294185 14.7351 0.00987594C14.7119 0.00531338 14.6883 0.00290591 14.6646 0.00268558C14.5813 0.00264852 14.501 0.0316671 14.439 0.0841581C14.3771 0.136649 14.3379 0.208903 14.329 0.287011C14.3202 0.365119 14.3422 0.443562 14.391 0.507243C14.4397 0.570924 14.5117 0.615342 14.5931 0.631948V0.629251Z" fill="url(#paint3_linear_3_8)"/>
<path d="M5.7852 2.68175C5.86651 2.66516 5.93844 2.62082 5.9872 2.55723C6.03595 2.49365 6.05808 2.41531 6.04934 2.33726C6.04059 2.25922 6.00159 2.18698 5.93982 2.13441C5.87805 2.08185 5.79787 2.05267 5.71469 2.05249C5.691 2.05271 5.66738 2.05512 5.64418 2.05968C4.69826 2.25217 3.84197 2.72406 3.19962 3.40687C2.55728 4.08968 2.1623 4.94786 2.07203 5.85683C2.06785 5.89846 2.07243 5.94047 2.08551 5.98042C2.09859 6.02038 2.11992 6.0575 2.14826 6.08966C2.1764 6.12201 2.21115 6.14871 2.25043 6.16816C2.28971 6.18762 2.33273 6.19944 2.37694 6.20293C2.42109 6.20701 2.46566 6.20278 2.50807 6.19049C2.55049 6.17821 2.58989 6.1581 2.62401 6.13135C2.65813 6.10459 2.68628 6.07172 2.70684 6.03463C2.7274 5.99753 2.73995 5.95696 2.74377 5.91526C2.82519 5.14277 3.16307 4.41426 3.70922 3.83362C4.25537 3.25298 4.9819 2.84986 5.7852 2.68175V2.68175Z" fill="url(#paint4_linear_3_8)"/>
<path d="M5.40594 0.629262C5.48725 0.612673 5.55918 0.568324 5.60794 0.504738C5.65669 0.441152 5.67882 0.362813 5.67008 0.28477C5.66133 0.206726 5.62233 0.134485 5.56056 0.0819224C5.49879 0.0293595 5.41862 0.000183706 5.33543 0C5.31174 0.000167253 5.28811 0.00257529 5.26492 0.00719036C3.87148 0.291499 2.61019 0.987039 1.66384 1.99301C0.717488 2.99898 0.13525 4.26312 0.00150057 5.60223C-0.00268176 5.64386 0.00189953 5.68586 0.0149811 5.72582C0.0280628 5.76578 0.049387 5.8029 0.0777271 5.83506C0.105874 5.86741 0.140616 5.8941 0.179896 5.91356C0.219176 5.93302 0.262195 5.94484 0.306405 5.94832C0.350536 5.95228 0.395061 5.94797 0.437419 5.93564C0.479778 5.9233 0.519134 5.90319 0.553225 5.87646C0.587317 5.84973 0.61547 5.8169 0.636067 5.77986C0.656664 5.74283 0.6693 5.70232 0.673245 5.66066C0.799288 4.45842 1.32483 3.3245 2.17479 2.4209C3.02475 1.51729 4.15565 0.890223 5.40594 0.629262V0.629262Z" fill="url(#paint5_linear_3_8)"/>
<defs>
<linearGradient id="paint0_linear_3_8" x1="13.1876" y1="13.0826" x2="9.63103" y2="19.4907" gradientUnits="userSpaceOnUse">
<stop stop-color="#FF94A6"/>
<stop offset="0.32" stop-color="#E03DC1"/>
<stop offset="1" stop-color="#8247E5"/>
</linearGradient>
<linearGradient id="paint1_linear_3_8" x1="15.0482" y1="6.19083" x2="7.48247" y2="17.5871" gradientUnits="userSpaceOnUse">
<stop stop-color="#FF94A6"/>
<stop offset="0.32" stop-color="#E03DC1"/>
<stop offset="1" stop-color="#8247E5"/>
</linearGradient>
<linearGradient id="paint2_linear_3_8" x1="21.6443" y1="0.550402" x2="2.48061" y2="14.0339" gradientUnits="userSpaceOnUse">
<stop stop-color="#FF94A6"/>
<stop offset="0.32" stop-color="#E03DC1"/>
<stop offset="1" stop-color="#8247E5"/>
</linearGradient>
<linearGradient id="paint3_linear_3_8" x1="21.4582" y1="0.285854" x2="2.29446" y2="13.7684" gradientUnits="userSpaceOnUse">
<stop stop-color="#FF94A6"/>
<stop offset="0.32" stop-color="#E03DC1"/>
<stop offset="1" stop-color="#8247E5"/>
</linearGradient>
<linearGradient id="paint4_linear_3_8" x1="17.9309" y1="-4.72736" x2="-1.23191" y2="8.75519" gradientUnits="userSpaceOnUse">
<stop stop-color="#FF94A6"/>
<stop offset="0.32" stop-color="#E03DC1"/>
<stop offset="1" stop-color="#8247E5"/>
</linearGradient>
<linearGradient id="paint5_linear_3_8" x1="16.9533" y1="-6.11553" x2="-2.20224" y2="7.36122" gradientUnits="userSpaceOnUse">
<stop stop-color="#FF94A6"/>
<stop offset="0.32" stop-color="#E03DC1"/>
<stop offset="1" stop-color="#8247E5"/>
</linearGradient>
</defs>
</svg>
