<svg width="43" height="44" viewBox="-8 -8 60 60" fill="none" xmlns="http://www.w3.org/2000/svg">
<path d="M21.3361 43.6391C22.5685 43.6385 23.7741 43.2924 24.8064 42.6429C25.8387 41.9935 26.6532 41.0687 27.1508 39.9809C27.2083 39.8603 27.2331 39.7275 27.2229 39.595C27.2126 39.4626 27.1677 39.3348 27.0924 39.2237C27.017 39.1125 26.9136 39.0217 26.7919 38.9596C26.6702 38.8975 26.5341 38.8663 26.3965 38.8688H16.2758C16.1383 38.8666 16.0025 38.8981 15.8811 38.9603C15.7596 39.0225 15.6565 39.1134 15.5814 39.2245C15.5063 39.3356 15.4615 39.4632 15.4514 39.5955C15.4413 39.7278 15.4661 39.8604 15.5235 39.9809C16.021 41.0684 16.8351 41.993 17.867 42.6424C18.8989 43.2918 20.1041 43.6381 21.3361 43.6391V43.6391Z" fill="white"/>
<path d="M36.871 32.9647C36.0805 32.9647 35.3224 32.6617 34.7635 32.1224C34.2045 31.5832 33.8905 30.8518 33.8905 30.0891V19.6423C33.8899 16.9484 32.9586 14.3316 31.2439 12.2055C29.5292 10.0794 27.1289 8.56538 24.4224 7.90282C24.3231 7.17044 23.9505 6.49809 23.3744 6.01167C22.7983 5.52525 22.0581 5.2581 21.2925 5.26027C20.527 5.26243 19.7885 5.53375 19.2153 6.02342C18.6421 6.5131 18.2736 7.18754 18.1788 7.92047C15.7651 8.52917 13.5938 9.81737 11.9416 11.6209C10.2895 13.4245 9.23127 15.6617 8.90181 18.0476C8.90181 18.1202 8.88148 18.1908 8.87335 18.2634C8.86522 18.3359 8.85099 18.4595 8.84286 18.5576C8.83473 18.6557 8.82659 18.7537 8.81846 18.8498C8.81032 18.946 8.80829 19.0127 8.80423 19.095C8.80423 19.2618 8.79203 19.4265 8.79 19.5952V30.0872C8.79002 30.8461 8.47907 31.5743 7.92495 32.1129C7.37082 32.6516 6.61845 32.957 5.83185 32.9627C5.64709 32.9606 5.46372 32.9937 5.2922 33.06C5.12069 33.1263 4.96439 33.2246 4.83223 33.3492C4.70008 33.4737 4.59466 33.6222 4.52199 33.7861C4.44931 33.95 4.41082 34.1261 4.40869 34.3044V34.3161C4.40869 34.6751 4.55649 35.0193 4.81957 35.2732C5.08265 35.527 5.43947 35.6696 5.81152 35.6696H36.871C37.2335 35.6562 37.5766 35.5079 37.8283 35.2557C38.0799 35.0036 38.2204 34.6672 38.2204 34.3171C38.2204 33.9671 38.0799 33.6307 37.8283 33.3785C37.5766 33.1263 37.2335 32.978 36.871 32.9647V32.9647Z" fill="white"/>
<path d="M30.3288 5.85113C32.0438 6.21827 33.5947 7.09874 34.7601 8.36685C35.9255 9.63495 36.6459 11.2259 36.8184 12.9125C36.8266 13.0035 36.8534 13.092 36.8972 13.1729C36.9411 13.2538 37.0012 13.3256 37.074 13.384C37.1468 13.4423 37.2309 13.4862 37.3213 13.513C37.4118 13.5398 37.5069 13.549 37.6012 13.5401C37.7911 13.5226 37.9663 13.4339 38.0891 13.293C38.1496 13.2228 38.1951 13.1418 38.223 13.0546C38.2509 12.9675 38.2607 12.8758 38.2518 12.785C38.0637 10.7978 37.2229 8.92038 35.852 7.42624C34.481 5.9321 32.6514 4.89925 30.6297 4.47809C30.5802 4.46814 30.5298 4.46288 30.4793 4.4624C30.3018 4.4628 30.1307 4.52646 29.9989 4.64116C29.8671 4.75585 29.7839 4.91347 29.7652 5.08376C29.7466 5.25405 29.7938 5.42499 29.8978 5.56373C30.0018 5.70247 30.1553 5.79924 30.3288 5.83544V5.85113Z" fill="white"/>
<path d="M31.1359 1.37301C33.8052 1.94211 36.2195 3.31099 38.0336 5.28388C39.8478 7.25677 40.9688 9.73262 41.2363 12.3573C41.2447 12.4482 41.2717 12.5366 41.3156 12.6174C41.3596 12.6982 41.4197 12.7698 41.4924 12.8282C41.5651 12.8865 41.6491 12.9304 41.7395 12.9573C41.8299 12.9842 41.9249 12.9936 42.0191 12.985C42.209 12.9675 42.3842 12.8787 42.507 12.7378C42.5675 12.6677 42.613 12.5867 42.6409 12.4995C42.6688 12.4123 42.6786 12.3207 42.6696 12.2298C42.3842 9.30791 41.1419 6.54958 39.1226 4.35457C37.1034 2.15956 34.4121 0.641905 31.4389 0.0215487C31.3894 0.0115933 31.339 0.0063402 31.2884 0.00585945C31.1108 0.00577857 30.9393 0.0690965 30.8072 0.183631C30.675 0.298165 30.5914 0.455821 30.5725 0.626251C30.5535 0.796682 30.6006 0.967843 30.7046 1.10679C30.8087 1.24574 30.9623 1.34266 31.1359 1.3789V1.37301Z" fill="white"/>
<path d="M12.3417 5.85107C12.5151 5.81487 12.6686 5.71811 12.7727 5.57936C12.8767 5.44062 12.9239 5.26968 12.9053 5.0994C12.8866 4.92911 12.8034 4.77147 12.6716 4.65678C12.5398 4.54209 12.3687 4.47843 12.1912 4.47803C12.1407 4.47851 12.0903 4.48376 12.0408 4.49372C10.0224 4.91372 8.19532 5.94339 6.82472 7.43326C5.45412 8.92313 4.61134 10.7957 4.41873 12.779C4.40981 12.8699 4.41958 12.9615 4.44749 13.0487C4.47541 13.1359 4.5209 13.2169 4.58137 13.287C4.64143 13.3576 4.71556 13.4159 4.79938 13.4583C4.88319 13.5008 4.97498 13.5266 5.06932 13.5342C5.16353 13.5431 5.25864 13.5339 5.34913 13.5071C5.43963 13.4803 5.52371 13.4364 5.59651 13.378C5.66931 13.3196 5.72939 13.2479 5.77325 13.167C5.81711 13.086 5.8439 12.9975 5.85205 12.9065C6.02579 11.221 6.74673 9.63137 7.91207 8.36442C9.0774 7.09748 10.6276 6.21788 12.3417 5.85107V5.85107Z" fill="white"/>
<path d="M11.5349 1.37304C11.7084 1.33684 11.8618 1.24007 11.9659 1.10133C12.0699 0.962585 12.1171 0.791651 12.0985 0.621362C12.0798 0.451072 11.9966 0.293444 11.8648 0.178753C11.733 0.0640618 11.5619 0.000400844 11.3844 0C11.3339 0.000364944 11.2835 0.00561924 11.234 0.0156892C8.26072 0.636046 5.56945 2.1537 3.55019 4.34871C1.53093 6.54372 0.288589 9.30205 0.00320183 12.224C-0.00572217 12.3148 0.00405309 12.4064 0.0319658 12.4936C0.0598786 12.5808 0.105379 12.6618 0.165849 12.732C0.225908 12.8026 0.300037 12.8608 0.38385 12.9033C0.467664 12.9457 0.559456 12.9715 0.653789 12.9791C0.747953 12.9878 0.842957 12.9784 0.933339 12.9514C1.02372 12.9245 1.1077 12.8807 1.18044 12.8223C1.25318 12.764 1.31325 12.6924 1.3572 12.6115C1.40115 12.5307 1.42811 12.4424 1.43653 12.3515C1.70547 9.72818 2.82683 7.254 4.64043 5.28235C6.45402 3.3107 8.86707 1.94245 11.5349 1.37304V1.37304Z" fill="white"/>
</svg>
