<?xml version="1.0" encoding="utf-8"?>
<!-- Generator: Adobe Illustrator 24.3.0, SVG Export Plug-In . SVG Version: 6.00 Build 0)  -->
<svg version="1.1" id="Layer_1" xmlns="http://www.w3.org/2000/svg" xmlns:xlink="http://www.w3.org/1999/xlink" x="0px" y="0px"
	 viewBox="0 0 350 350" enable-background="new 0 0 350 350" xml:space="preserve">
<g>
	<path fill="#9788E2" d="M146.078,69.742c-8.086,4.281-15.48,9.758-22.09,16.367c-36.104,36.102-36.104,94.846,0,130.947
		c17.488,17.49,40.742,27.121,65.476,27.121c24.732,0,47.984-9.631,65.473-27.121c6.609-6.607,12.086-14.004,16.367-22.09
		c-6.959,1.414-14.055,2.127-21.221,2.127c-28.35,0-55.002-11.039-75.048-31.084c-14.428-14.43-24.336-32.549-28.652-52.402
		C143.226,99.092,143.144,84.162,146.078,69.742z"/>
	<path fill="#8478D6" d="M207.608,226.033c-24.732,0-47.985-9.631-65.475-27.121c-33.039-33.039-35.836-85.035-8.404-121.293
		c-3.41,2.582-6.662,5.41-9.74,8.49c-36.104,36.102-36.104,94.846,0,130.947c17.488,17.49,40.742,27.121,65.476,27.121
		c24.732,0,47.984-9.631,65.473-27.121c3.07-3.068,5.893-6.311,8.467-9.709C247.416,219.469,228.018,226.033,207.608,226.033z"/>
	<path fill="#FF54A4" d="M199.672,95.564c-7.287,0-13.215,5.928-13.215,13.215c0,7.285,5.928,13.215,13.215,13.215h81.91
		c4.06,0,7.365-3.305,7.365-7.365c0-4.062-3.305-7.365-7.365-7.365c-0.385,0-0.779,0.031-1.168,0.092
		c-3.027,0.479-6-1.135-7.244-3.936c-2.123-4.773-6.863-7.855-12.078-7.855c-0.264,0-0.561,0.012-0.936,0.039
		c-3.129,0.215-5.992-1.74-6.93-4.729c-3.146-10.023-12.326-16.76-22.844-16.76c-10.52,0-19.699,6.736-22.846,16.76
		c-0.938,2.988-3.793,4.943-6.928,4.729C200.233,95.576,199.936,95.564,199.672,95.564z"/>
	<path fill="#FF54A4" d="M70.068,267.33c-4.973,0-9.016,4.043-9.016,9.016c0,4.971,4.043,9.016,9.016,9.016h64.701
		c2.426,0,4.396-1.971,4.396-4.396c0-2.422-1.971-4.395-4.396-4.395c-0.23,0-0.465,0.02-0.699,0.057
		c-3.029,0.478-6-1.137-7.244-3.938c-1.449-3.256-4.684-5.359-8.242-5.359c-0.176,0-0.383,0.008-0.648,0.025
		c-3.121,0.213-5.984-1.74-6.922-4.727c-2.299-7.322-9.004-12.242-16.688-12.242s-14.391,4.92-16.688,12.242
		c-0.938,2.986-3.801,4.945-6.924,4.727C70.451,267.338,70.246,267.33,70.068,267.33z"/>
	<path fill="#041C3F" d="M287.965,179.887c-1.842-1.844-4.58-2.465-7.037-1.598c-9.914,3.492-20.291,5.264-30.846,5.264
		c-24.732,0-47.984-9.631-65.471-27.119c-25.062-25.061-33.64-62.867-21.854-96.316c0.865-2.457,0.244-5.195-1.6-7.037
		c-1.842-1.844-4.58-2.465-7.037-1.6c-15.016,5.291-28.377,13.721-39.709,25.053c-20.047,20.047-31.086,46.699-31.086,75.051
		c0,28.35,11.039,55.002,31.086,75.049c20.047,20.047,46.699,31.088,75.052,31.088c28.35,0,55.004-11.041,75.049-31.088
		c11.334-11.332,19.762-24.691,25.053-39.709C290.43,184.467,289.809,181.728,287.965,179.887z M254.936,217.056
		c-17.488,17.49-40.74,27.121-65.473,27.121c-24.733,0-47.987-9.631-65.476-27.121c-36.104-36.102-36.104-94.846,0-130.947
		c6.609-6.609,14.004-12.086,22.09-16.367c-2.934,14.42-2.852,29.35,0.305,43.865c4.316,19.854,14.225,37.973,28.652,52.402
		c20.046,20.045,46.698,31.084,75.048,31.084c7.166,0,14.262-0.713,21.221-2.127C267.022,203.053,261.545,210.449,254.936,217.056z"
		/>
	<path fill="#041C3F" d="M283.252,93.787c-4.316-6.373-11.207-10.615-18.885-11.564c-2.603-5.607-6.551-10.465-11.594-14.227
		c-6.51-4.855-14.252-7.422-22.391-7.422c-8.141,0-15.883,2.566-22.393,7.422c-5.043,3.762-8.99,8.619-11.594,14.225
		c-13.215,1.621-23.481,12.912-23.481,26.559c0,14.754,12.003,26.756,26.757,26.756h81.91c11.529,0,20.908-9.379,20.908-20.906
		C302.491,103.662,294.002,94.639,283.252,93.787z M281.583,121.994h-81.91c-7.287,0-13.215-5.93-13.215-13.215
		c0-7.287,5.928-13.215,13.215-13.215c0.264,0,0.561,0.012,0.938,0.039c3.135,0.215,5.99-1.74,6.928-4.729
		c3.146-10.023,12.326-16.76,22.846-16.76c10.518,0,19.697,6.736,22.844,16.76c0.938,2.988,3.801,4.943,6.93,4.729
		c0.375-0.027,0.672-0.039,0.936-0.039c5.215,0,9.955,3.082,12.078,7.855c1.244,2.801,4.217,4.414,7.244,3.936
		c0.389-0.061,0.783-0.092,1.168-0.092c4.06,0,7.365,3.303,7.365,7.365C288.948,118.689,285.643,121.994,281.583,121.994z"/>
	<path fill="#041C3F" d="M136.878,263.152c-3.502-4.852-8.816-8.139-14.75-9.084c-5.166-10.471-15.814-17.225-27.803-17.225
		c-6.738,0-13.148,2.125-18.537,6.146c-3.963,2.955-7.109,6.73-9.262,11.074c-10.764,1.703-19.018,11.047-19.018,22.281
		c0,12.438,10.119,22.559,22.559,22.559h64.701c9.893,0,17.939-8.047,17.939-17.939
		C152.708,271.787,145.781,264.197,136.878,263.152z M134.769,285.361H70.068c-4.973,0-9.016-4.045-9.016-9.016
		c0-4.973,4.043-9.016,9.016-9.016c0.178,0,0.383,0.008,0.646,0.025c3.123,0.219,5.986-1.74,6.924-4.727
		c2.297-7.322,9.004-12.242,16.688-12.242s14.389,4.92,16.688,12.242c0.938,2.986,3.801,4.939,6.922,4.727
		c0.266-0.018,0.473-0.025,0.648-0.025c3.559,0,6.793,2.103,8.242,5.359c1.244,2.801,4.215,4.416,7.244,3.938
		c0.234-0.037,0.469-0.057,0.699-0.057c2.426,0,4.396,1.973,4.396,4.395C139.166,283.39,137.195,285.361,134.769,285.361z"/>
	<g>
		<g>
			<path fill="#041C3F" d="M93.916,73.918c0-7.479-6.062-13.541-13.543-13.541c-7.479,0-13.541,6.062-13.541,13.541
				c0,7.48,6.062,13.543,13.541,13.543C87.853,87.461,93.916,81.398,93.916,73.918z"/>
		</g>
		<g>
			<path fill="#041C3F" d="M74.957,192.412c0-4.486-3.639-8.125-8.125-8.125c-4.488,0-8.127,3.639-8.127,8.125
				c0,4.488,3.639,8.127,8.127,8.127C71.318,200.539,74.957,196.9,74.957,192.412z"/>
		</g>
		<g>
			<circle fill="#041C3F" cx="264.547" cy="250.949" r="8.125"/>
		</g>
		<g>
			<circle fill="#041C3F" cx="245.829" cy="158.556" r="8.125"/>
		</g>
		<g>
			<circle fill="#041C3F" cx="186.637" cy="276" r="8.125"/>
		</g>
	</g>
	<path fill="#EF4198" d="M199.672,105.922c0.264,0,0.561,0.014,0.938,0.039c3.135,0.215,5.99-1.738,6.928-4.727
		c3.146-10.025,12.326-16.76,22.846-16.76c10.518,0,19.697,6.734,22.844,16.76c0.938,2.988,3.801,4.941,6.93,4.727
		c0.375-0.025,0.672-0.039,0.936-0.039c5.215,0,9.955,3.084,12.078,7.855c1.244,2.801,4.217,4.416,7.244,3.938
		c0.389-0.062,0.783-0.094,1.168-0.094c2.045,0,3.895,0.838,5.232,2.186c1.316-1.33,2.133-3.16,2.133-5.178
		c0-4.062-3.305-7.365-7.365-7.365c-0.385,0-0.779,0.031-1.168,0.092c-3.027,0.479-6-1.135-7.244-3.936
		c-2.123-4.773-6.863-7.855-12.078-7.855c-0.264,0-0.561,0.012-0.936,0.039c-3.129,0.215-5.992-1.74-6.93-4.729
		c-3.146-10.023-12.326-16.76-22.844-16.76c-10.52,0-19.699,6.736-22.846,16.76c-0.938,2.988-3.793,4.943-6.928,4.729
		c-0.377-0.027-0.674-0.039-0.938-0.039c-7.287,0-13.215,5.928-13.215,13.215c0,1.836,0.379,3.588,1.059,5.178
		C189.536,109.238,194.223,105.922,199.672,105.922z"/>
	<path fill="#EF4198" d="M70.068,277.687c0.178,0,0.383,0.01,0.646,0.027c3.123,0.217,5.986-1.742,6.924-4.729
		c2.297-7.322,9.004-12.242,16.688-12.242s14.389,4.92,16.688,12.242c0.938,2.986,3.801,4.94,6.922,4.729
		c0.266-0.018,0.473-0.027,0.648-0.027c3.559,0,6.793,2.105,8.242,5.361c0.402,0.906,0.988,1.686,1.695,2.312h6.248
		c2.426,0,4.396-1.971,4.396-4.396c0-2.422-1.971-4.395-4.396-4.395c-0.23,0-0.465,0.02-0.699,0.057
		c-3.029,0.478-6-1.137-7.244-3.938c-1.449-3.256-4.684-5.359-8.242-5.359c-0.176,0-0.383,0.008-0.648,0.025
		c-3.121,0.213-5.984-1.74-6.922-4.727c-2.299-7.322-9.004-12.242-16.688-12.242s-14.391,4.92-16.688,12.242
		c-0.938,2.986-3.801,4.945-6.924,4.727c-0.264-0.018-0.469-0.025-0.646-0.025c-4.973,0-9.016,4.043-9.016,9.016
		c0,1.926,0.607,3.713,1.643,5.18C64.328,279.207,67.023,277.687,70.068,277.687z"/>
</g>
</svg>
